<svg viewBox="0 0 259 265" id="ikonTopLogo" xmlns="http://www.w3.org/2000/svg">
    <g clip-path="url(#clip0_145_11)">
        <path
            d="M16.7896 183C24.5964 195.893 35.8179 207.011 49.5188 213.443C29.8671 192.13 14.976 167.878 11.5473 139.437C6.10657 98.8267 21.7061 53.8436 58.4166 31.5366C60.8394 30.0315 63.3331 28.6258 65.8551 27.3053C26.2117 56.5557 7.6226 109.419 26.9909 162.468C34.4435 182.361 47.7761 200.735 66.3227 212.122C55.8521 202.779 47.7053 191.42 41.6411 179.095C24.809 142.844 24.5964 98.0458 45.9059 63.5417C56.1497 46.6304 71.4375 33.8511 89.1056 25.4878C51.9558 50.1376 30.2355 96.5975 41.0461 142.532C46.3876 169.042 59.7626 195.296 83.1123 210.802C62.8372 192.968 52.2675 167.153 49.4055 141.297C46.7418 116.022 50.5106 89.5262 63.7157 67.3329C73.3361 50.2796 88.0288 36.7762 105.102 27.9584C85.5635 41.6749 70.3182 61.994 62.908 83.8892C55.8805 102.859 55.9797 123.959 59.6493 143.441C64.7358 168.815 77.1757 195.026 99.9161 209.467C81.3412 191.391 72.4718 166.699 69.3122 141.964C66.0109 117.556 69.2697 92.5933 81.823 71.0815C82.8998 69.1362 84.0191 67.2335 85.2092 65.3592C108.46 28.7394 155.584 13.1203 196.517 29.5204C196.715 29.6056 196.914 29.6765 197.112 29.7617C225.081 41.1353 245.044 73.112 245.044 73.112C218.691 10.1952 167.146 0.738543 139.871 0.369363C109.041 -1.67532 77.6433 4.85632 51.5733 21.37C-2.12533 54.795 -14.1969 131.286 16.7896 183Z" />
        <g opacity="0.54">
            <path
                d="M65.4726 12.5663C62.9789 13.9436 60.5278 15.4061 58.1192 16.968C25.7441 37.7273 10.0171 77.3289 10.8531 115.709C11.6465 85.7065 22.5421 55.6467 43.5539 35.0436C49.8306 26.6093 57.1699 19.0269 65.4726 12.5663Z" />
            <path
                d="M63.3615 54.2694C52.4093 73.6798 48.0595 96.2423 48.4846 118.563C48.938 98.358 53.4577 78.2377 63.3615 60.6875C67.6404 52.6791 72.9536 45.4375 79.0177 39.0479C86.0878 29.1794 94.6313 20.3617 104.223 13.2621C87.3629 22.449 72.8544 36.5204 63.3615 54.2836V54.2694Z" />
            <path
                d="M17.0305 174.778C6.48917 156.206 0.991793 134.566 0.495896 112.756C-0.0283386 136.71 5.45487 160.806 17.0447 181.196C24.7523 194.629 35.8321 206.215 49.3489 212.917C45.6934 208.743 42.2079 204.44 38.935 200.039C30.0797 193.393 22.6554 184.59 17.0447 174.778H17.0305Z" />
            <path
                d="M88.4256 10.6779C70.9841 19.382 55.8947 32.7008 45.7784 50.3221C34.2027 70.1016 29.0737 93.1185 29.5555 116.121C30.0655 95.2768 35.2795 74.6737 45.7784 56.7401C50.7374 48.107 56.9007 40.4962 63.9424 33.9646C70.97 25.0191 79.216 17.1385 88.4256 10.6779Z" />
            <path
                d="M59.3518 133.558C58.0058 126.061 57.1557 118.322 56.9573 110.569C56.7306 120.48 57.6374 130.406 59.3518 139.976C64.3674 166.415 76.6515 193.72 99.1086 208.771C93.5404 203.063 88.8789 196.702 84.9684 189.915C71.31 174.551 63.1915 153.806 59.3518 133.558Z" />
            <path
                d="M195.086 15.1364C194.888 15.0512 194.689 14.966 194.491 14.895C154.068 -2.18667 107.553 14.0856 84.5859 52.2389C83.4099 54.1842 82.3048 56.1721 81.2421 58.2026C71.2533 76.264 67.2295 96.6825 67.7537 117.243C68.1504 98.8692 72.2876 80.8078 81.2421 64.6206C82.3048 62.5902 83.4241 60.6023 84.5859 58.657C107.553 20.4895 154.068 4.21718 194.491 21.2988C194.689 21.384 194.888 21.4692 195.086 21.5402C222.7 33.3824 242.409 66.6937 242.409 66.6937C239.447 59.2391 236.175 52.5229 232.632 46.4456C224.231 35.853 210.969 21.9378 195.086 15.1222V15.1364Z" />
            <path
                d="M63.5032 185.357C51.885 170.22 44.5882 151.477 40.9753 132.621C39.3601 125.393 38.4958 118.152 38.2974 110.981C38.0424 120.239 38.8925 129.639 40.9753 139.039C46.2459 166.656 59.451 194.018 82.5031 210.163C74.7671 202.978 68.4763 194.543 63.489 185.357H63.5032Z" />
            <path
                d="M48.6971 190.27C39.1617 179.691 31.8933 166.883 27.0902 153.38C22.3295 139.592 19.8926 125.819 19.5242 112.444C19.1841 127.821 21.5644 143.795 27.0902 159.798C34.4436 180.529 47.6203 199.669 65.926 211.526C59.2385 205.235 53.5286 198.036 48.6971 190.27Z" />
        </g>
        <path
            d="M242.196 82.0005C234.389 69.1076 223.168 57.9896 209.467 51.5574C229.119 72.8704 244.01 97.1227 247.439 125.564C252.879 166.173 237.28 211.157 200.569 233.464C198.146 234.969 195.653 236.374 193.131 237.695C232.774 208.445 251.363 155.567 231.995 102.533C224.542 82.6395 211.21 64.2657 192.663 52.8779C203.134 62.221 211.281 73.5804 217.345 85.9053C234.177 122.156 234.389 166.954 213.08 201.459C202.836 218.37 187.548 231.149 169.88 239.512C207.03 214.863 228.75 168.403 217.94 122.468C212.598 95.9583 199.223 69.704 175.873 54.1984C196.149 72.0326 206.718 97.8468 209.58 123.704C212.244 148.978 208.475 175.474 195.27 197.667C185.65 214.721 170.957 228.224 153.884 237.042C173.422 223.325 188.668 203.006 196.078 181.111C203.105 162.141 203.006 141.041 199.336 121.56C194.25 96.1855 181.81 69.9738 159.07 55.5332C177.645 73.6088 186.514 98.3012 189.674 123.036C192.975 147.445 189.716 172.407 177.163 193.919C176.086 195.864 174.967 197.767 173.777 199.641C150.526 236.261 103.402 251.88 62.4689 235.48C62.2705 235.395 62.0721 235.324 61.8738 235.238C33.9052 223.865 13.9418 191.888 13.9418 191.888C40.3093 254.805 91.8402 264.262 119.129 264.631C149.959 266.676 181.357 260.144 207.427 243.63C261.125 210.205 273.183 133.714 242.196 82.0005Z" />
        <g opacity="0.54">
            <path
                d="M193.527 252.434C196.021 251.056 198.472 249.594 200.881 248.032C233.256 227.273 248.983 187.671 248.147 149.305C247.354 179.308 236.458 209.368 215.446 229.971C209.169 238.405 201.83 245.987 193.527 252.448V252.434Z" />
            <path
                d="M195.639 210.731C206.591 191.32 210.941 168.758 210.515 146.437C210.062 166.642 205.542 186.762 195.639 204.313C191.36 212.321 186.046 219.562 179.982 225.952C172.912 235.821 164.369 244.638 154.777 251.738C171.637 242.551 186.146 228.48 195.639 210.716V210.731Z" />
            <path
                d="M241.969 90.2219C252.511 108.794 258.008 130.434 258.518 152.244C259.042 128.29 253.559 104.194 241.969 83.8038C234.262 70.3714 223.182 58.7848 209.665 52.0828C213.321 56.2573 216.806 60.5597 220.079 64.9615C228.934 71.6067 236.359 80.4102 241.969 90.2219Z" />
            <path
                d="M170.574 254.308C188.016 245.604 203.105 232.285 213.222 214.664C224.797 194.884 229.926 171.867 229.445 148.865C228.934 169.709 223.72 190.312 213.222 208.246C208.263 216.879 202.099 224.49 195.058 231.021C188.03 239.967 179.784 247.847 170.574 254.308Z" />
            <path
                d="M199.648 131.428C200.994 138.925 201.844 146.664 202.043 154.417C202.269 144.505 201.363 134.58 199.648 125.01C194.633 98.571 182.348 71.2659 159.891 56.2147C165.46 61.9228 170.121 68.2841 174.032 75.0713C187.69 90.4348 195.809 111.18 199.648 131.428Z" />
            <path
                d="M63.9141 249.864C64.1124 249.949 64.3108 250.034 64.5091 250.105C104.932 267.187 151.447 250.914 174.414 212.761C175.59 210.816 176.695 208.828 177.758 206.797C187.747 188.736 191.771 168.318 191.246 147.757C190.85 166.131 186.712 184.192 177.758 200.379C176.695 202.41 175.576 204.398 174.414 206.343C151.447 244.496 104.932 260.769 64.5091 243.687C64.3108 243.602 64.1124 243.517 63.9141 243.446C36.2997 231.603 16.5913 198.292 16.5913 198.292C19.5525 205.747 22.8254 212.463 26.3676 218.54C34.7695 229.133 48.0312 243.048 63.9141 249.864Z" />
            <path
                d="M195.497 79.6434C207.115 94.7798 214.412 113.523 218.025 132.379C219.64 139.607 220.504 146.848 220.703 154.019C220.958 144.761 220.108 135.361 218.025 125.961C212.754 98.3438 199.549 70.9819 176.497 54.8374C184.233 62.0222 190.524 70.4565 195.511 79.6434H195.497Z" />
            <path
                d="M210.303 74.7163C219.838 85.2947 227.107 98.1024 231.91 111.606C236.67 125.393 239.107 139.167 239.476 152.542C239.816 137.164 237.436 121.19 231.91 105.188C224.556 84.457 211.38 65.3164 193.074 53.4601C199.762 59.7503 205.471 66.9493 210.303 74.7163Z" />
        </g>
    </g>
    <defs>
        <clipPath id="clip0_145_11">
            <rect width="259" height="265" />
        </clipPath>
    </defs>
</svg>