<svg viewBox="0 0 485 74" xmlns="http://www.w3.org/2000/svg">
    <path fill-rule="evenodd" clip-rule="evenodd"
        d="M13.1034 69.7281C10.4688 70.0014 7.77987 69.7281 5.28105 68.8537C3.10817 67.952 1.36986 66.2305 0.500705 64.0445C0.0389662 61.5852 -0.0968394 59.0986 0.0661271 56.612V4.06568C2.70075 3.79243 5.3897 4.06568 7.88852 4.94009C10.0614 5.84182 11.7997 7.56331 12.6689 9.74932C13.1306 12.2086 13.2664 14.6952 13.1034 17.1818V69.7281Z"
         />
    <path
        d="M21.795 30.3252C29.21 25.0788 60.9613 4.0657 60.9613 4.0657L63.5687 7.12612C64.7367 8.79296 65.3342 10.7877 65.307 12.8098C65.307 18.0562 59.223 21.5538 52.2697 25.9259C45.3165 30.2979 32.6866 39.042 32.6866 39.042L67.4799 63.1155C65.4428 67.1869 61.5045 69.9741 56.9957 70.4659C53.6278 70.0287 50.4499 68.5805 47.8968 66.3125C42.6819 62.2411 27.0914 50.8191 23.0987 47.8133C19.106 44.8076 17.4492 43.0041 17.4492 39.0693C17.1233 35.5443 18.8073 32.156 21.795 30.3252Z"
         />
    <path fill-rule="evenodd" clip-rule="evenodd"
        d="M152.304 4.06567C152.576 6.71621 152.304 9.42141 151.435 11.9353C150.539 14.1213 148.827 15.8702 146.654 16.7446C144.21 17.2091 141.738 17.3457 139.267 17.1818H87.0631C86.7915 14.5312 87.0631 11.826 87.9322 9.3121C88.8285 7.12609 90.5397 5.37728 92.7126 4.50287C95.1571 4.03834 97.6287 3.90172 100.1 4.06567H152.304Z"
         />
    <path fill-rule="evenodd" clip-rule="evenodd"
        d="M152.304 30.3252C152.576 32.9757 152.304 35.6809 151.435 38.1948C150.539 40.3808 148.827 42.1297 146.654 43.0041C144.21 43.4686 141.738 43.6052 139.267 43.4413H87.0631C86.7915 40.7907 87.0631 38.0855 87.9322 35.5716C88.8285 33.3856 90.5397 31.6368 92.7126 30.7624C95.1571 30.2978 97.6287 30.1612 100.1 30.3252H152.304Z"
         />
    <path fill-rule="evenodd" clip-rule="evenodd"
        d="M152.304 56.5847C152.576 59.2353 152.304 61.9404 151.435 64.4544C150.539 66.6404 148.827 68.3892 146.654 69.2636C144.21 69.7281 141.738 69.8648 139.267 69.7008H87.0631C86.7915 67.0503 87.0631 64.3451 87.9322 61.8312C88.8285 59.6451 90.5397 57.8963 92.7126 57.0219C95.1571 56.5574 97.6287 56.4208 100.1 56.5847H152.304Z"
         />
    <path
        d="M239.301 52.2127C239.301 34.6972 234.955 30.3252 213.199 30.3252H174.06V56.5847C173.897 59.0713 174.06 61.5852 174.495 64.0172C175.391 66.2032 177.102 67.952 179.275 68.8264C181.801 69.7008 184.463 69.9741 187.097 69.7008V43.4413H217.545C221.701 42.7855 225.585 45.6546 226.236 49.8081C226.372 50.6005 226.372 51.3929 226.236 52.1854V60.9294C225.585 65.1102 228.436 69.0177 232.565 69.6735C233.353 69.8101 234.14 69.8101 234.928 69.6735H243.62C243.62 69.6735 239.274 67.0503 239.274 52.158L239.301 52.2127Z"
         />
    <path
        d="M217.545 17.2091H174.033C174.033 8.46505 177.075 4.09302 187.07 4.09302H221.863C232.728 4.09302 239.274 6.71624 239.274 17.2091C239.274 23.33 234.493 25.9532 226.236 25.9532C226.236 19.8323 224.498 17.2091 217.545 17.2091Z"
         />
    <path
        d="M356.745 40.2169C344.469 37.8943 342.839 32.156 342.839 22.7015C342.839 9.58537 352.4 3 374.156 3C391.131 3 402.865 9.12085 402.865 16.1161C402.811 18.548 401.887 20.8707 400.257 22.6741C391.484 18.2748 381.788 16.0341 371.983 16.1161C361.118 16.1161 356.745 17.1545 356.745 22.6741C356.745 26.4723 357.75 27.9206 362.829 29.6694C367.909 31.4182 374.129 32.7298 374.129 40.1623V43.414C374.129 43.414 368.995 42.5396 356.718 40.1623L356.745 40.2169Z"
         />
    <path
        d="M391.973 34.6973C402.838 37.3205 405.445 43.8785 405.445 51.3383C405.445 64.4544 395.884 71.0398 374.128 71.0398C352.372 71.0398 341.508 66.6677 341.508 58.3609C341.59 56.1475 342.35 54.0162 343.681 52.24C347.592 54.8633 364.16 57.9783 376.356 57.9783C387.22 57.9783 391.593 57.1039 391.593 51.4203C391.593 47.0482 389.855 45.7366 385.509 44.425C381.163 43.1134 378.501 41.8018 378.501 36.1182V31.7461C383.064 32.4566 387.573 33.4676 391.973 34.7792V34.6973Z"
         />
    <path
        d="M436.3 40.2169C424.023 37.8943 422.394 32.156 422.394 22.7015C422.394 9.58537 431.954 3 453.711 3C470.686 3 482.42 9.12085 482.42 16.1161C482.365 18.548 481.442 20.8707 479.812 22.6741C471.039 18.2748 461.343 16.0341 451.538 16.1161C440.673 16.1161 436.3 16.9905 436.3 22.6741C436.3 26.4723 437.305 27.9206 442.384 29.6694C447.463 31.4182 453.683 32.7298 453.683 40.1623V43.414C453.683 43.414 448.496 42.5396 436.273 40.1623L436.3 40.2169Z"
         />
    <path
        d="M471.528 34.6973C482.393 37.3205 485 43.8785 485 51.3383C485 64.4544 475.439 71.0398 453.683 71.0398C431.927 71.0398 421.063 66.6677 421.063 58.3609C421.144 56.1475 421.878 54.0162 423.181 52.24C427.093 54.8633 443.661 57.9783 455.856 57.9783C466.721 57.9783 471.094 57.1039 471.094 51.4203C471.094 47.0482 469.355 45.7366 465.009 44.425C460.664 43.1134 458.056 41.8018 458.056 36.1182V31.7461C462.619 32.4566 467.128 33.4676 471.528 34.7792V34.6973Z"
         />
    <g clip-path="url(#clip0_145_32)">
        <path
            d="M261.602 50.4114C263.743 53.963 266.819 57.0257 270.575 58.7976C265.187 52.9265 261.105 46.2457 260.165 38.411C258.674 27.2241 262.95 14.8325 273.014 8.6876C273.678 8.27299 274.362 7.88575 275.053 7.52198C264.185 15.5796 259.09 30.1421 264.399 44.7554C266.442 50.2354 270.097 55.2968 275.181 58.4338C272.311 55.8601 270.077 52.7309 268.415 49.3357C263.801 39.3497 263.743 27.009 269.584 17.5041C272.392 12.8455 276.583 9.32518 281.427 7.02131C271.243 13.8116 265.288 26.61 268.252 39.2637C269.716 46.5664 273.383 53.7987 279.784 58.0701C274.226 53.1573 271.328 46.0462 270.544 38.9234C269.813 31.9609 270.846 24.6621 274.466 18.5485C277.104 13.8508 281.131 10.1309 285.812 7.70191C280.456 11.4804 276.276 17.0777 274.245 23.1092C272.319 28.335 272.346 34.1474 273.352 39.514C274.746 46.5038 278.156 53.7244 284.39 57.7024C279.298 52.7231 276.867 45.921 276.001 39.1072C275.096 32.3834 275.989 25.507 279.43 19.5811C279.725 19.0452 280.032 18.5211 280.358 18.0048C286.732 7.91704 299.65 3.61441 310.871 8.13217C310.926 8.15564 310.98 8.1752 311.034 8.19867C318.702 11.3318 324.174 20.1404 324.174 20.1404C316.95 2.80864 302.82 0.203597 295.343 0.101899C286.891 -0.461355 278.284 1.33793 271.138 5.88698C256.417 15.0946 253.108 36.1658 261.602 50.4114Z"
             />
        <g opacity="0.54">
            <path
                d="M274.948 3.46167C274.264 3.84108 273.593 4.24397 272.932 4.67423C264.057 10.3928 259.746 21.3019 259.975 31.8747C260.193 23.6097 263.179 15.3291 268.939 9.65355C270.66 7.33013 272.672 5.24139 274.948 3.46167Z"
                 />
            <path
                d="M274.369 14.9497C271.367 20.2967 270.175 26.512 270.291 32.6609C270.415 27.0948 271.654 21.5523 274.369 16.7177C275.542 14.5116 276.999 12.5167 278.661 10.7566C280.599 8.03809 282.941 5.60906 285.571 3.65332C280.949 6.18405 276.972 10.0603 274.369 14.9536V14.9497Z"
                 />
            <path
                d="M261.669 48.1465C258.779 43.0303 257.272 37.0692 257.136 31.0612C256.992 37.6598 258.495 44.2976 261.672 49.9145C263.785 53.6148 266.823 56.8065 270.528 58.6528C269.526 57.5028 268.571 56.3176 267.673 55.105C265.246 53.2745 263.211 50.8493 261.672 48.1465H261.669Z"
                 />
            <path
                d="M281.24 2.94153C276.459 5.33927 272.322 9.00824 269.549 13.8624C266.376 19.3111 264.97 25.6516 265.102 31.9882C265.242 26.2461 266.671 20.5706 269.549 15.6304C270.909 13.2522 272.598 11.1556 274.529 9.35636C276.455 6.89213 278.716 4.72125 281.24 2.94153Z"
                 />
            <path
                d="M273.27 36.7914C272.901 34.7262 272.668 32.5944 272.614 30.4587C272.552 33.189 272.8 35.9231 273.27 38.5594C274.645 45.8426 278.013 53.3644 284.169 57.5106C282.642 55.9381 281.364 54.1858 280.293 52.3161C276.548 48.0839 274.323 42.3692 273.27 36.7914Z"
                 />
            <path
                d="M310.479 4.16969C310.425 4.14622 310.37 4.12275 310.316 4.10319C299.235 -0.60232 286.484 3.88024 280.188 14.3904C279.865 14.9263 279.562 15.4739 279.271 16.0332C276.533 21.0086 275.43 26.6333 275.573 32.2972C275.682 27.2357 276.816 22.2603 279.271 17.8012C279.562 17.2419 279.869 16.6943 280.188 16.1584C286.484 5.64432 299.235 1.16176 310.316 5.86727C310.37 5.89074 310.425 5.91421 310.479 5.93377C318.049 9.19594 323.452 18.3723 323.452 18.3723C322.64 16.3188 321.743 14.4686 320.772 12.7945C318.469 9.87654 314.833 6.04329 310.479 4.16578V4.16969Z"
                 />
            <path
                d="M274.408 51.0605C271.223 46.8908 269.223 41.7277 268.233 36.5332C267.79 34.5423 267.553 32.5474 267.498 30.5721C267.429 33.1224 267.662 35.7118 268.233 38.3012C269.677 45.9091 273.297 53.4465 279.617 57.8938C277.496 55.9146 275.771 53.5912 274.404 51.0605H274.408Z"
                 />
            <path
                d="M270.349 52.4139C267.735 49.4999 265.743 45.9717 264.426 42.2519C263.121 38.4539 262.453 34.6597 262.352 30.9751C262.259 35.2112 262.911 39.6117 264.426 44.0199C266.442 49.7307 270.054 55.0033 275.072 58.2694C273.239 56.5366 271.674 54.5535 270.349 52.4139Z"
                 />
        </g>
        <path
            d="M323.394 22.5889C321.253 19.0372 318.177 15.9745 314.421 14.2026C319.809 20.0738 323.891 26.7546 324.831 34.5893C326.322 45.7761 322.046 58.1677 311.982 64.3126C311.318 64.7273 310.635 65.1145 309.943 65.4783C320.811 57.4206 325.907 42.8542 320.597 28.2449C318.554 22.7649 314.899 17.7034 309.815 14.5664C312.685 17.1402 314.919 20.2693 316.581 23.6645C321.195 33.6505 321.253 45.9913 315.412 55.4962C312.604 60.1547 308.413 63.6751 303.569 65.9789C313.753 59.1886 319.708 46.3902 316.744 33.7366C315.28 26.4338 311.613 19.2015 305.212 14.9302C310.77 19.843 313.668 26.9541 314.453 34.0769C315.183 41.0393 314.15 48.3381 310.53 54.4518C307.892 59.1495 303.865 62.8693 299.184 65.2983C304.54 61.5198 308.72 55.9225 310.751 49.891C312.678 44.6653 312.65 38.8528 311.644 33.4862C310.25 26.4964 306.84 19.2758 300.606 15.2979C305.698 20.2772 308.129 27.0792 308.995 33.893C309.9 40.6169 309.007 47.4933 305.566 53.4192C305.271 53.955 304.964 54.4792 304.638 54.9955C298.264 65.0832 285.346 69.3858 274.125 64.8681C274.07 64.8446 274.016 64.825 273.962 64.8016C266.294 61.6685 260.822 52.8598 260.822 52.8598C268.05 70.1916 282.176 72.7966 289.657 72.8983C298.109 73.4616 306.716 71.6623 313.862 67.1133C328.583 57.9056 331.888 36.8345 323.394 22.5889Z"
             />
        <g opacity="0.54">
            <path
                d="M310.052 69.5382C310.735 69.1588 311.407 68.7559 312.068 68.3257C320.943 62.6071 325.254 51.698 325.025 41.1292C324.807 49.3941 321.821 57.6747 316.06 63.3503C314.34 65.6737 312.328 67.7624 310.052 69.5422V69.5382Z"
                 />
            <path
                d="M310.631 58.0503C313.633 52.7033 314.825 46.488 314.709 40.3391C314.585 45.9052 313.346 51.4477 310.631 56.2823C309.458 58.4884 308.001 60.4832 306.339 62.2434C304.401 64.9619 302.059 67.3909 299.429 69.3467C304.051 66.8159 308.028 62.9397 310.631 58.0464V58.0503Z"
                 />
            <path
                d="M323.331 24.8535C326.221 29.9698 327.728 35.9309 327.868 41.9389C328.012 35.3402 326.509 28.7024 323.331 23.0855C321.218 19.3853 318.181 16.1935 314.476 14.3473C315.478 15.4973 316.433 16.6824 317.331 17.895C319.758 19.7256 321.793 22.1507 323.331 24.8535Z"
                 />
            <path
                d="M303.76 70.0546C308.541 67.6569 312.677 63.9879 315.451 59.1337C318.624 53.685 320.03 47.3445 319.898 41.0079C319.758 46.75 318.329 52.4256 315.451 57.3658C314.091 59.7439 312.402 61.8405 310.471 63.6398C308.545 66.104 306.284 68.2749 303.76 70.0546Z"
                 />
            <path
                d="M311.73 36.2046C312.099 38.2699 312.332 40.4016 312.386 42.5373C312.448 39.8071 312.2 37.0729 311.73 34.4366C310.355 27.1534 306.987 19.6316 300.831 15.4855C302.358 17.0579 303.636 18.8102 304.707 20.6799C308.452 24.9121 310.677 30.6268 311.73 36.2046Z"
                 />
            <path
                d="M274.521 68.8304C274.575 68.8538 274.63 68.8773 274.684 68.8968C285.765 73.6024 298.516 69.1198 304.812 58.6096C305.135 58.0738 305.438 57.5262 305.729 56.9668C308.467 51.9914 309.57 46.3667 309.427 40.7029C309.318 45.7643 308.184 50.7397 305.729 55.1988C305.438 55.7582 305.131 56.3058 304.812 56.8417C298.516 67.3518 285.765 71.8344 274.684 67.1289C274.63 67.1054 274.575 67.0819 274.521 67.0624C266.951 63.8002 261.548 54.6238 261.548 54.6238C262.36 56.6774 263.257 58.5275 264.228 60.2016C266.531 63.1196 270.167 66.9528 274.521 68.8304Z"
                 />
            <path
                d="M310.592 21.9394C313.777 26.1091 315.777 31.2722 316.767 36.4667C317.21 38.4576 317.447 40.4525 317.501 42.4278C317.571 39.8775 317.338 37.2881 316.767 34.6987C315.323 27.0909 311.703 19.5534 305.383 15.1061C307.504 17.0853 309.228 19.4087 310.596 21.9394H310.592Z"
                 />
            <path
                d="M314.651 20.5822C317.265 23.4962 319.257 27.0244 320.574 30.7442C321.879 34.5423 322.547 38.3364 322.648 42.021C322.741 37.7849 322.088 33.3845 320.574 28.9762C318.558 23.2655 314.946 17.9928 309.928 14.7267C311.761 16.4595 313.326 18.4426 314.651 20.5822Z"
                 />
        </g>
    </g>
    <defs>
        <clipPath id="clip0_145_32">
            <rect width="71" height="73"  transform="translate(257)" />
        </clipPath>
    </defs>
</svg>